:SAMPLES-PER-SECOND 30
:FULLY-SPECIFIED
:DEGREES
230
root  21.0895 40.5671 1.14835 11.2651 87.4023 13.3868
RightUpLeg  4.97362 -9.73302 -8.13944
RightLeg  7.88516 -3.0233 2.85673
RightFoot  -6.90023 -0.0993546 1.35294
RightToes  -2.9104e-010 0 -3.6325e-017
Spine  1.73022 1.42164 2.3382
Spine1  4.42193 2.12713 -2.36268
HEad  -8.66411 6.10258 -2.23546
LeftShoulder1  0.44758 -0.814751 -2.1305
LeftArm  -30.7415 10.7093 -2.46796
LeftForeArm  16.0777 -14.3065 -0.0469813
LeftHand  -0.244104 0.0205437 5.32207
RightShoulder  0.149177 -1.6155 -0.574046
RightArm  -26.6557 -3.06761 3.42537
RightForeArm  -17.5183 7.66576 3.54048
RightHand  -2.70858 8.46638 -22.7322
LeftUpLeg  5.29938 4.29877 -0.149403
LeftLeg  4.36998 13.7767 -3.20093
LeftFoot  -6.63518 -0.0378039 1.89319
LeftToes  1.09107e-011 -5.80176e-011 5.60941e-012
231
root  21.0528 40.6028 1.27117 12.2382 87.3196 14.2386
RightUpLeg  5.26277 -9.65922 -8.10146
RightLeg  6.89826 -2.99236 3.17484
RightFoot  -6.51219 -0.0920247 1.13633
RightToes  -2.9104e-010 0 -3.6325e-017
Spine  1.40052 1.38231 2.15034
Spine1  4.31723 2.02639 -2.08127
HEad  -8.82103 6.48577 -2.64482
LeftShoulder1  0.432348 -0.949434 -1.39592
LeftArm  -27.8098 9.23047 -2.56431
LeftForeArm  13.2947 -11.1391 0.310862
LeftHand  -0.244104 0.0205437 5.32207
RightShoulder  0.136029 -1.65708 -1.19242
RightArm  -26.7714 -1.65696 3.04965
RightForeArm  -16.7491 7.03642 3.45165
RightHand  -2.86542 8.86289 -23.3554
LeftUpLeg  5.40482 4.13813 -0.0473049
LeftLeg  3.72575 13.9763 -3.35113
LeftFoot  -6.18998 -0.0435427 1.79726
LeftToes  1.09107e-011 -5.80176e-011 5.60941e-012
232
root  21.0056 40.6322 1.39978 12.8282 87.4361 14.8495
RightUpLeg  5.38673 -9.63525 -7.9082
RightLeg  6.54533 -3.22481 3.29673
RightFoot  -6.15046 -0.0737399 0.704412
RightToes  -2.9104e-010 0 -3.6325e-017
Spine  1.38934 1.22208 1.90192
Spine1  4.23718 1.78481 -1.74294
HEad  -9.26995 6.85981 -3.17133
LeftShoulder1  0.435975 -1.25757 -0.775287
LeftArm  -25.5162 8.11402 -2.826
LeftForeArm  11.2571 -7.39748 0.28158
LeftHand  -0.244104 0.0205437 5.32207
RightShoulder  0.141989 -1.55976 -1.26821
RightArm  -26.7154 -0.37701 2.53337
RightForeArm  -15.9908 6.11498 3.33519
RightHand  -3.02367 9.25376 -23.9621
LeftUpLeg  5.51066 4.06052 0.11853
LeftLeg  3.35325 13.9234 -3.36145
LeftFoot  -5.81559 -0.0449129 1.65644
LeftToes  1.09107e-011 -5.80176e-011 5.60941e-012
233
root  20.9483 40.6505 1.52772 14.8452 87.6291 16.8949
RightUpLeg  5.23585 -9.48193 -7.61877
RightLeg  6.75813 -3.72321 3.17384
RightFoot  -6.01123 -0.0594169 0.398582
RightToes  -2.9104e-010 0 -3.6325e-017
Spine  1.55444 0.995932 1.56488
Spine1  4.18945 1.48392 -1.43535
HEad  -10.035 7.0087 -3.6836
LeftShoulder1  0.43319 -1.43879 -0.336334
LeftArm  -23.8335 7.24894 -3.28113
LeftForeArm  10.041 -4.06751 0.140374
LeftHand  -0.244104 0.0205437 5.32207
RightShoulder  0.148422 -1.52425 -1.04575
RightArm  -26.5383 0.806814 2.28254
RightForeArm  -15.0539 4.94774 3.19314
RightHand  -3.18037 9.65027 -24.5166
LeftUpLeg  5.48846 4.05752 0.272058
LeftLeg  3.22635 13.6955 -3.34324
LeftFoot  -5.53958 -0.0463935 1.57375
LeftToes  1.09107e-011 -5.80176e-011 5.60941e-012
234
root  20.8911 40.6588 1.65003 19.1237 87.8236 21.1461
RightUpLeg  4.94933 -9.40811 -7.43494
RightLeg  7.14372 -4.10451 3.05403
RightFoot  -6.06811 -0.0524089 0.243572
RightToes  -2.9104e-010 0 -3.6325e-017
Spine  1.72177 0.790293 1.091
Spine1  4.17728 1.19003 -1.05609
HEad  -11.0107 6.91209 -4.07814
LeftShoulder1  0.442158 -1.58679 -0.249813
LeftArm  -22.4158 6.62873 -3.6924
LeftForeArm  9.23528 -1.59937 -0.0829445
LeftHand  -0.244104 0.0205437 5.32207
RightShoulder  0.157721 -1.44526 -0.858412
RightArm  -26.2639 1.5445 2.47282
RightForeArm  -13.8954 3.71294 3.01791
RightHand  -3.269 9.84043 -24.8702
LeftUpLeg  5.36726 4.09537 0.383741
LeftLeg  3.17395 13.3901 -3.38363
LeftFoot  -5.33407 -0.0504961 1.57468
LeftToes  1.09107e-011 -5.80176e-011 5.60941e-012
235
root  20.8531 40.6666 1.76561 24.4856 87.976 26.4496
RightUpLeg  4.77146 -9.53532 -7.43478
RightLeg  7.33219 -4.17554 3.16208
RightFoot  -6.10726 -0.0473745 0.128559
RightToes  -2.9104e-010 0 -3.6325e-017
Spine  1.80163 0.661865 0.571372
Spine1  4.20032 0.959976 -0.614237
HEad  -12.0096 6.82224 -4.32675
LeftShoulder1  0.488323 -1.91325 -0.623687
LeftArm  -21.1382 6.39437 -3.77682
LeftForeArm  8.55397 -0.165456 -0.417478
LeftHand  -0.244104 0.0205437 5.32207
RightShoulder  0.179521 -1.19442 -0.731898
RightArm  -25.8396 1.6094 2.88758
RightForeArm  -12.2815 2.57575 2.81845
RightHand  -3.23526 9.76464 -24.7408
LeftUpLeg  5.29993 4.09034 0.444082
LeftLeg  2.99467 13.1667 -3.43314
LeftFoot  -5.09506 -0.0541651 1.55578
LeftToes  1.09107e-011 -5.80176e-011 5.60941e-012
236
root  20.8435 40.6798 1.87531 29.1031 88.0665 30.9449
RightUpLeg  4.71909 -9.67239 -7.46273
RightLeg  7.22908 -4.15215 3.3804
RightFoot  -6.03563 -0.0445767 0.0599859
RightToes  -2.9104e-010 0 -3.6325e-017
Spine  1.72765 0.604264 0.176175
Spine1  4.27971 0.83401 -0.320055
HEad  -12.9049 6.91472 -4.39703
LeftShoulder1  0.547585 -2.26162 -1.17971
LeftArm  -20.1484 6.43414 -3.65097
LeftForeArm  8.22458 0.371614 -0.749497
LeftHand  -0.244104 0.0205437 5.32207
RightShoulder  0.208703 -0.920473 -0.382869
RightArm  -25.2333 1.33237 3.18707
RightForeArm  -10.2709 1.49692 2.63848
RightHand  -3.10434 9.5502 -24.1078
LeftUpLeg  5.27499 4.01828 0.469638
LeftLeg  2.68092 13.0932 -3.42978
LeftFoot  -4.7896 -0.0531656 1.43367
LeftToes  1.09107e-011 -5.80176e-011 5.60941e-012
